<?xml version="1.0" standalone="no"?><!-- Generator: Gravit.io -->
<svg xmlns="http://www.w3.org/2000/svg" style="isolation:isolate" viewBox="0 0 18 18" width="18" height="18">
    <defs>
        <clipPath id="_clipPath_DdKj8IDpzBcNaWCFtga8bJRzuJULUILG">
            <rect width="18" height="18"/>
        </clipPath>
    </defs>
    <g clip-path="url(#_clipPath_DdKj8IDpzBcNaWCFtga8bJRzuJULUILG)">
        <rect width="18" height="18" style="fill:rgb(0,0,0)"/>
        <path d=" M 4.112 10.69 L 3.148 7.544 L 2.82 10.69 L 2.102 10.69 L 2.82 6.472 L 3.883 6.472 L 4.871 9.691 L 5.87 6.472 L 6.933 6.472 L 7.531 10.69 L 6.347 10.69 L 5.999 7.626 L 5.175 10.69 L 4.112 10.69 L 4.112 10.69 Z  M 12.315 8.672 L 12.315 8.672 L 12.315 8.728 L 12.315 8.728 Q 12.309 8.974 12.264 9.237 L 12.264 9.237 L 12.264 9.237 Q 12.218 9.501 12.136 9.765 L 12.136 9.765 L 12.136 9.765 Q 12.054 10.028 11.94 10.286 L 11.94 10.286 L 11.94 10.286 Q 11.826 10.544 11.684 10.78 L 11.684 10.78 L 11.684 10.78 Q 11.542 11.016 11.377 11.222 L 11.377 11.222 L 11.377 11.222 Q 11.213 11.429 11.032 11.587 L 11.032 11.587 L 10.595 11.335 L 10.595 11.335 Q 10.698 11.162 10.781 10.958 L 10.781 10.958 L 10.781 10.958 Q 10.865 10.755 10.932 10.532 L 10.932 10.532 L 10.932 10.532 Q 11 10.31 11.048 10.075 L 11.048 10.075 L 11.048 10.075 Q 11.096 9.841 11.128 9.609 L 11.128 9.609 L 11.128 9.609 Q 11.161 9.378 11.177 9.154 L 11.177 9.154 L 11.177 9.154 Q 11.193 8.93 11.193 8.728 L 11.193 8.728 L 11.193 8.728 Q 11.193 8.569 11.191 8.369 L 11.191 8.369 L 11.191 8.369 Q 11.19 8.168 11.168 7.96 L 11.168 7.96 L 11.168 7.96 Q 11.146 7.752 11.096 7.554 L 11.096 7.554 L 11.096 7.554 Q 11.046 7.356 10.948 7.201 L 10.948 7.201 L 10.948 7.201 Q 10.85 7.046 10.696 6.952 L 10.696 6.952 L 10.696 6.952 Q 10.542 6.858 10.314 6.858 L 10.314 6.858 L 10.314 6.858 Q 10.112 6.858 9.967 6.927 L 9.967 6.927 L 9.967 6.927 Q 9.822 6.996 9.721 7.112 L 9.721 7.112 L 9.721 7.112 Q 9.62 7.228 9.56 7.38 L 9.56 7.38 L 9.56 7.38 Q 9.5 7.532 9.466 7.701 L 9.466 7.701 L 9.466 7.701 Q 9.432 7.869 9.422 8.041 L 9.422 8.041 L 9.422 8.041 Q 9.412 8.212 9.412 8.364 L 9.412 8.364 L 9.412 9.182 L 10.674 9.182 L 10.674 9.665 L 9.412 9.665 L 9.412 10.69 L 8.249 10.69 L 8.249 8.546 L 8.249 8.546 Q 8.249 8.086 8.395 7.69 L 8.395 7.69 L 8.395 7.69 Q 8.542 7.295 8.81 7.003 L 8.81 7.003 L 8.81 7.003 Q 9.078 6.712 9.454 6.546 L 9.454 6.546 L 9.454 6.546 Q 9.831 6.381 10.293 6.381 L 10.293 6.381 L 10.293 6.381 Q 10.607 6.381 10.881 6.47 L 10.881 6.47 L 10.881 6.47 Q 11.155 6.56 11.38 6.716 L 11.38 6.716 L 11.38 6.716 Q 11.606 6.873 11.783 7.088 L 11.783 7.088 L 11.783 7.088 Q 11.96 7.304 12.079 7.559 L 12.079 7.559 L 12.079 7.559 Q 12.198 7.813 12.259 8.098 L 12.259 8.098 L 12.259 8.098 Q 12.321 8.382 12.315 8.672 Z  M 16.1 10.154 L 16.1 10.69 L 13.071 10.69 L 13.071 6.472 L 14.234 6.472 L 14.234 10.154 L 16.1 10.154 L 16.1 10.154 Z "
              fill-rule="evenodd" fill="rgb(255,251,251)"/>
    </g>
</svg>